<svg width="25" height="25" viewBox="0 0 25 25" fill="none" xmlns="http://www.w3.org/2000/svg">
<g id="entypo-social:facebook">
<path id="Vector" d="M20.5436 1.43481H3.68183C2.35698 1.43481 1.27301 2.51878 1.27301 3.84363V20.7054C1.27301 22.0315 2.35698 23.1142 3.68183 23.1142H12.1127V14.6833H9.70389V11.7024H12.1127V9.23337C12.1127 6.62703 13.5725 4.79632 16.6485 4.79632L18.8201 4.79873V7.93622H17.3784C16.1812 7.93622 15.726 8.83471 15.726 9.66817V11.7036H18.8189L18.1348 14.6833H15.726V23.1142H20.5436C21.8685 23.1142 22.9524 22.0315 22.9524 20.7054V3.84363C22.9524 2.51878 21.8685 1.43481 20.5436 1.43481Z" fill="#5A8E87"/>
</g>
</svg>
