<svg width="23" height="23" viewBox="0 0 23 23" fill="none" xmlns="http://www.w3.org/2000/svg">
<g id="bi:instagram" clip-path="url(#clip0_90_63)">
<path id="Vector" d="M11.152 0.122551C8.1256 0.122551 7.74504 0.136491 6.55596 0.189463C5.36688 0.245223 4.55697 0.432018 3.84743 0.708029C3.10282 0.987282 2.42854 1.42649 1.87214 1.99469C1.30394 2.55109 0.864731 3.22537 0.585478 3.96998C0.309467 4.67813 0.121278 5.48943 0.0669118 6.67433C0.01394 7.86619 0 8.24536 0 11.2759C0 14.3037 0.01394 14.6828 0.0669118 15.8719C0.122672 17.0596 0.309467 17.8695 0.585478 18.579C0.871247 19.3123 1.25181 19.934 1.87214 20.5543C2.49107 21.1747 3.11279 21.5566 3.84603 21.841C4.55697 22.117 5.36549 22.3052 6.55317 22.3596C7.74364 22.4125 8.12281 22.4265 11.152 22.4265C14.1811 22.4265 14.5589 22.4125 15.7494 22.3596C16.9356 22.3038 17.7483 22.117 18.4579 21.841C19.202 21.5616 19.8758 21.1224 20.4318 20.5543C21.0521 19.934 21.4327 19.3123 21.7184 18.579C21.9931 17.8695 22.1812 17.0596 22.237 15.8719C22.29 14.6828 22.3039 14.3037 22.3039 11.2745C22.3039 8.24536 22.29 7.86619 22.237 6.67572C22.1812 5.48943 21.9931 4.67813 21.7184 3.96998C21.4392 3.22537 21 2.55109 20.4318 1.99469C19.8754 1.42649 19.2011 0.987282 18.4565 0.708029C17.7456 0.432018 16.9343 0.243829 15.748 0.189463C14.5575 0.136491 14.1797 0.122551 11.1492 0.122551H11.152ZM10.1525 2.13269H11.1534C14.1309 2.13269 14.4836 2.14245 15.6587 2.19682C16.7461 2.24561 17.3371 2.42822 17.7302 2.58016C18.2502 2.78229 18.6224 3.02485 19.0127 3.41517C19.403 3.80549 19.6442 4.17629 19.8463 4.69764C19.9996 5.08936 20.1809 5.68041 20.2297 6.76773C20.284 7.94286 20.2952 8.29554 20.2952 11.2717C20.2952 14.2479 20.284 14.602 20.2297 15.7771C20.1809 16.8644 19.9983 17.4541 19.8463 17.8472C19.6663 18.3308 19.381 18.7683 19.0113 19.1283C18.621 19.5186 18.2502 19.7598 17.7288 19.9619C17.3385 20.1152 16.7475 20.2964 15.6587 20.3466C14.4836 20.3996 14.1309 20.4121 11.1534 20.4121C8.17578 20.4121 7.82171 20.3996 6.64657 20.3466C5.55925 20.2964 4.96959 20.1152 4.57649 19.9619C4.09254 19.7824 3.6545 19.4977 3.29401 19.1283C2.92359 18.7681 2.6379 18.33 2.45761 17.8458C2.30567 17.4541 2.12305 16.863 2.07426 15.7757C2.02129 14.6006 2.01014 14.2479 2.01014 11.2689C2.01014 8.28997 2.02129 7.94007 2.07426 6.76494C2.12445 5.67762 2.30567 5.08657 2.45901 4.69346C2.66114 4.1735 2.90369 3.8013 3.29401 3.41099C3.68433 3.02067 4.05513 2.77951 4.57649 2.57738C4.96959 2.42404 5.55925 2.24282 6.64657 2.19263C7.67534 2.14524 8.07402 2.1313 10.1525 2.1299V2.13269ZM17.1057 3.98392C16.93 3.98392 16.756 4.01853 16.5936 4.08578C16.4312 4.15304 16.2837 4.25161 16.1594 4.37588C16.0352 4.50014 15.9366 4.64767 15.8693 4.81003C15.8021 4.97239 15.7675 5.14641 15.7675 5.32215C15.7675 5.49789 15.8021 5.67191 15.8693 5.83427C15.9366 5.99663 16.0352 6.14416 16.1594 6.26843C16.2837 6.39269 16.4312 6.49127 16.5936 6.55852C16.756 6.62577 16.93 6.66039 17.1057 6.66039C17.4606 6.66039 17.801 6.5194 18.052 6.26843C18.303 6.01746 18.4439 5.67707 18.4439 5.32215C18.4439 4.96723 18.303 4.62684 18.052 4.37588C17.801 4.12491 17.4606 3.98392 17.1057 3.98392ZM11.1534 5.54798C10.3937 5.53613 9.63933 5.67551 8.93408 5.95801C8.22884 6.24051 7.58684 6.66049 7.04546 7.19348C6.50408 7.72648 6.07414 8.36185 5.78068 9.0626C5.48721 9.76336 5.33607 10.5155 5.33607 11.2752C5.33607 12.0349 5.48721 12.7871 5.78068 13.4878C6.07414 14.1886 6.50408 14.8239 7.04546 15.3569C7.58684 15.8899 8.22884 16.3099 8.93408 16.5924C9.63933 16.8749 10.3937 17.0143 11.1534 17.0024C12.6568 16.979 14.0908 16.3653 15.1457 15.2937C16.2006 14.2222 16.7919 12.7789 16.7919 11.2752C16.7919 9.77154 16.2006 8.32818 15.1457 7.25667C14.0908 6.18516 12.6568 5.57144 11.1534 5.54798ZM11.1534 7.55673C11.6416 7.55673 12.125 7.65289 12.5761 7.83973C13.0272 8.02656 13.437 8.30041 13.7822 8.64564C14.1275 8.99087 14.4013 9.40071 14.5881 9.85178C14.775 10.3028 14.8711 10.7863 14.8711 11.2745C14.8711 11.7627 14.775 12.2462 14.5881 12.6972C14.4013 13.1483 14.1275 13.5582 13.7822 13.9034C13.437 14.2486 13.0272 14.5225 12.5761 14.7093C12.125 14.8961 11.6416 14.9923 11.1534 14.9923C10.1673 14.9923 9.2217 14.6006 8.52448 13.9034C7.82726 13.2062 7.43557 12.2605 7.43557 11.2745C7.43557 10.2885 7.82726 9.34286 8.52448 8.64564C9.2217 7.94842 10.1673 7.55673 11.1534 7.55673Z" fill="#5A8E87"/>
</g>
<defs>
<clipPath id="clip0_90_63">
<rect width="22.3039" height="22.3039" fill="white" transform="translate(0 0.122551)"/>
</clipPath>
</defs>
</svg>
