<svg width="30" height="29" viewBox="0 0 30 29" fill="none" xmlns="http://www.w3.org/2000/svg">
<g id="mdi:linkedin">
<path id="Vector" d="M23.5229 3.56863C24.1539 3.56863 24.759 3.81928 25.2051 4.26544C25.6513 4.71161 25.902 5.31674 25.902 5.94771V22.6013C25.902 23.2323 25.6513 23.8374 25.2051 24.2836C24.759 24.7297 24.1539 24.9804 23.5229 24.9804H6.86929C6.23832 24.9804 5.63319 24.7297 5.18702 24.2836C4.74086 23.8374 4.4902 23.2323 4.4902 22.6013V5.94771C4.4902 5.31674 4.74086 4.71161 5.18702 4.26544C5.63319 3.81928 6.23832 3.56863 6.86929 3.56863H23.5229ZM22.9281 22.0065V15.702C22.9281 14.6735 22.5195 13.6871 21.7923 12.9599C21.065 12.2326 20.0787 11.824 19.0502 11.824C18.0391 11.824 16.8614 12.4426 16.2905 13.3705V12.0501H12.9716V22.0065H16.2905V16.1421C16.2905 15.2261 17.028 14.4767 17.9439 14.4767C18.3856 14.4767 18.8092 14.6522 19.1215 14.9645C19.4338 15.2768 19.6093 15.7004 19.6093 16.1421V22.0065H22.9281ZM9.10563 10.1825C9.63565 10.1825 10.144 9.97193 10.5187 9.59716C10.8935 9.22238 11.1041 8.71407 11.1041 8.18405C11.1041 7.07778 10.2119 6.17372 9.10563 6.17372C8.57246 6.17372 8.06112 6.38553 7.68411 6.76254C7.3071 7.13954 7.0953 7.65088 7.0953 8.18405C7.0953 9.29033 7.99935 10.1825 9.10563 10.1825ZM10.7591 22.0065V12.0501H7.46406V22.0065H10.7591Z" fill="#5A8E87"/>
</g>
</svg>
