<svg width="27" height="28" viewBox="0 0 27 28" fill="none" xmlns="http://www.w3.org/2000/svg">
<g id="mdi:twitter">
<path id="Vector" d="M25.2826 7.58334C24.4239 7.97365 23.4983 8.23015 22.5392 8.35282C23.5206 7.76177 24.2789 6.825 24.6358 5.69865C23.7102 6.25625 22.6842 6.64657 21.6024 6.86961C20.7214 5.91054 19.4836 5.35294 18.0784 5.35294C15.4577 5.35294 13.3165 7.49412 13.3165 10.1371C13.3165 10.5163 13.3612 10.8843 13.4392 11.23C9.46912 11.0293 5.93395 9.12231 3.58088 6.23395C3.16826 6.93652 2.93407 7.76177 2.93407 8.63162C2.93407 10.2933 3.77047 11.7653 5.06409 12.6017C4.27231 12.6017 3.53628 12.3787 2.88946 12.0441V12.0776C2.88946 14.3972 4.53995 16.3376 6.72574 16.7726C6.02397 16.9646 5.28724 16.9913 4.57341 16.8506C4.8763 17.8013 5.46951 18.6332 6.26964 19.2293C7.06977 19.8253 8.03659 20.1557 9.03419 20.1739C7.34314 21.5126 5.24698 22.2363 3.0902 22.2259C2.71103 22.2259 2.33186 22.2036 1.9527 22.159C4.07157 23.5195 6.59191 24.3113 9.29069 24.3113C18.0784 24.3113 22.9072 17.0179 22.9072 10.6947C22.9072 10.4828 22.9072 10.2821 22.8961 10.0702C23.8328 9.40111 24.6358 8.55356 25.2826 7.58334Z" fill="#5A8E87"/>
</g>
</svg>
